<mxfile host="app.diagrams.net" agent="Mozilla/5.0 (Windows NT 6.1; Win64; x64) AppleWebKit/537.36 (KHTML, like Gecko) Chrome/103.0.0.0 Safari/537.36" version="24.7.16">
  <diagram id="7jzPsQJwcqlsQzRGnlxg" name="Página-1">
    <mxGraphModel dx="388" dy="496" grid="1" gridSize="10" guides="1" tooltips="1" connect="1" arrows="1" fold="1" page="1" pageScale="1" pageWidth="827" pageHeight="1169" math="0" shadow="0">
      <root>
        <mxCell id="0" />
        <mxCell id="1" parent="0" />
        <mxCell id="jsqgV44sP_Be9pG4HtVX-4" style="edgeStyle=orthogonalEdgeStyle;rounded=0;orthogonalLoop=1;jettySize=auto;html=1;exitX=0.5;exitY=1;exitDx=0;exitDy=0;entryX=0.5;entryY=0;entryDx=0;entryDy=0;" edge="1" parent="1" source="jsqgV44sP_Be9pG4HtVX-1" target="jsqgV44sP_Be9pG4HtVX-2">
          <mxGeometry relative="1" as="geometry" />
        </mxCell>
        <mxCell id="jsqgV44sP_Be9pG4HtVX-1" value="" style="ellipse;whiteSpace=wrap;html=1;aspect=fixed;fillColor=#d5e8d4;strokeColor=#82b366;" vertex="1" parent="1">
          <mxGeometry x="380" y="30" width="60" height="60" as="geometry" />
        </mxCell>
        <mxCell id="jsqgV44sP_Be9pG4HtVX-28" style="edgeStyle=orthogonalEdgeStyle;rounded=0;orthogonalLoop=1;jettySize=auto;html=1;exitX=1;exitY=0.5;exitDx=0;exitDy=0;entryX=0.5;entryY=0;entryDx=0;entryDy=0;" edge="1" parent="1" source="jsqgV44sP_Be9pG4HtVX-2" target="jsqgV44sP_Be9pG4HtVX-15">
          <mxGeometry relative="1" as="geometry">
            <Array as="points">
              <mxPoint x="490" y="150" />
              <mxPoint x="490" y="390" />
              <mxPoint x="410" y="390" />
            </Array>
          </mxGeometry>
        </mxCell>
        <mxCell id="jsqgV44sP_Be9pG4HtVX-2" value="Para Cont de 0 a 4" style="shape=hexagon;perimeter=hexagonPerimeter2;whiteSpace=wrap;html=1;fixedSize=1;fillColor=#f5f5f5;fontColor=#333333;strokeColor=#666666;" vertex="1" parent="1">
          <mxGeometry x="350" y="110" width="120" height="80" as="geometry" />
        </mxCell>
        <mxCell id="jsqgV44sP_Be9pG4HtVX-23" style="edgeStyle=orthogonalEdgeStyle;rounded=0;orthogonalLoop=1;jettySize=auto;html=1;exitX=0.5;exitY=1;exitDx=0;exitDy=0;exitPerimeter=0;entryX=0.5;entryY=0;entryDx=0;entryDy=0;" edge="1" parent="1" source="jsqgV44sP_Be9pG4HtVX-3" target="jsqgV44sP_Be9pG4HtVX-10">
          <mxGeometry relative="1" as="geometry" />
        </mxCell>
        <mxCell id="jsqgV44sP_Be9pG4HtVX-3" value="A[Cont]&lt;div&gt;B[Cont]&lt;/div&gt;" style="shape=card;whiteSpace=wrap;html=1;fillColor=#fff2cc;strokeColor=#d6b656;" vertex="1" parent="1">
          <mxGeometry x="365" y="210" width="90" height="70" as="geometry" />
        </mxCell>
        <mxCell id="jsqgV44sP_Be9pG4HtVX-5" style="edgeStyle=orthogonalEdgeStyle;rounded=0;orthogonalLoop=1;jettySize=auto;html=1;exitX=0.5;exitY=1;exitDx=0;exitDy=0;entryX=0.5;entryY=0;entryDx=0;entryDy=0;entryPerimeter=0;" edge="1" parent="1" source="jsqgV44sP_Be9pG4HtVX-2" target="jsqgV44sP_Be9pG4HtVX-3">
          <mxGeometry relative="1" as="geometry" />
        </mxCell>
        <mxCell id="jsqgV44sP_Be9pG4HtVX-27" style="edgeStyle=orthogonalEdgeStyle;rounded=0;orthogonalLoop=1;jettySize=auto;html=1;exitX=0.5;exitY=1;exitDx=0;exitDy=0;entryX=0;entryY=0.5;entryDx=0;entryDy=0;" edge="1" parent="1" source="jsqgV44sP_Be9pG4HtVX-10" target="jsqgV44sP_Be9pG4HtVX-2">
          <mxGeometry relative="1" as="geometry" />
        </mxCell>
        <mxCell id="jsqgV44sP_Be9pG4HtVX-10" value="X[Cont] = A[Cont]&lt;div&gt;X[Cont+5] = B[Cont]&lt;/div&gt;" style="rounded=0;whiteSpace=wrap;html=1;fillColor=#e1d5e7;strokeColor=#9673a6;" vertex="1" parent="1">
          <mxGeometry x="350" y="300" width="120" height="60" as="geometry" />
        </mxCell>
        <mxCell id="jsqgV44sP_Be9pG4HtVX-19" style="edgeStyle=orthogonalEdgeStyle;rounded=0;orthogonalLoop=1;jettySize=auto;html=1;exitX=0.5;exitY=1;exitDx=0;exitDy=0;entryX=0.5;entryY=0;entryDx=0;entryDy=0;" edge="1" parent="1" source="jsqgV44sP_Be9pG4HtVX-13" target="jsqgV44sP_Be9pG4HtVX-18">
          <mxGeometry relative="1" as="geometry" />
        </mxCell>
        <mxCell id="jsqgV44sP_Be9pG4HtVX-22" style="edgeStyle=orthogonalEdgeStyle;rounded=0;orthogonalLoop=1;jettySize=auto;html=1;exitX=1;exitY=0.5;exitDx=0;exitDy=0;entryX=0;entryY=0.5;entryDx=0;entryDy=0;" edge="1" parent="1" source="jsqgV44sP_Be9pG4HtVX-13" target="jsqgV44sP_Be9pG4HtVX-21">
          <mxGeometry relative="1" as="geometry" />
        </mxCell>
        <mxCell id="jsqgV44sP_Be9pG4HtVX-13" value="Para Cont de 0 a 9" style="shape=hexagon;perimeter=hexagonPerimeter2;whiteSpace=wrap;html=1;fixedSize=1;fillColor=#f5f5f5;fontColor=#333333;strokeColor=#666666;" vertex="1" parent="1">
          <mxGeometry x="350" y="514" width="120" height="80" as="geometry" />
        </mxCell>
        <mxCell id="jsqgV44sP_Be9pG4HtVX-17" style="edgeStyle=orthogonalEdgeStyle;rounded=0;orthogonalLoop=1;jettySize=auto;html=1;exitX=0.5;exitY=0;exitDx=0;exitDy=0;entryX=0.5;entryY=0;entryDx=0;entryDy=0;" edge="1" parent="1" source="jsqgV44sP_Be9pG4HtVX-15" target="jsqgV44sP_Be9pG4HtVX-13">
          <mxGeometry relative="1" as="geometry">
            <Array as="points">
              <mxPoint x="410" y="454" />
              <mxPoint x="410" y="454" />
            </Array>
          </mxGeometry>
        </mxCell>
        <mxCell id="jsqgV44sP_Be9pG4HtVX-15" value="&quot; ***** UNIÃO DE A E B ***** &quot;" style="shape=document;whiteSpace=wrap;html=1;boundedLbl=1;fillColor=#dae8fc;strokeColor=#6c8ebf;" vertex="1" parent="1">
          <mxGeometry x="315" y="419" width="190" height="80" as="geometry" />
        </mxCell>
        <mxCell id="jsqgV44sP_Be9pG4HtVX-20" style="edgeStyle=orthogonalEdgeStyle;rounded=0;orthogonalLoop=1;jettySize=auto;html=1;exitX=0.5;exitY=0;exitDx=0;exitDy=0;entryX=0;entryY=0.5;entryDx=0;entryDy=0;" edge="1" parent="1" source="jsqgV44sP_Be9pG4HtVX-18" target="jsqgV44sP_Be9pG4HtVX-13">
          <mxGeometry relative="1" as="geometry">
            <Array as="points">
              <mxPoint x="410" y="714" />
              <mxPoint x="295" y="714" />
              <mxPoint x="295" y="554" />
            </Array>
          </mxGeometry>
        </mxCell>
        <mxCell id="jsqgV44sP_Be9pG4HtVX-18" value="&quot; Posição &quot;Cont+1&quot; : &quot;X[Cont]" style="shape=document;whiteSpace=wrap;html=1;boundedLbl=1;fillColor=#dae8fc;strokeColor=#6c8ebf;" vertex="1" parent="1">
          <mxGeometry x="315" y="614" width="190" height="80" as="geometry" />
        </mxCell>
        <mxCell id="jsqgV44sP_Be9pG4HtVX-21" value="" style="ellipse;whiteSpace=wrap;html=1;aspect=fixed;fillColor=#f8cecc;strokeColor=#b85450;" vertex="1" parent="1">
          <mxGeometry x="505" y="524" width="60" height="60" as="geometry" />
        </mxCell>
      </root>
    </mxGraphModel>
  </diagram>
</mxfile>
